0
SECTION
2
HEADER
9
$INSUNITS
70
4
9
$ACADVER
1
AC1014
9
$HANDSEED
5
FFFF
0
ENDSEC
0
SECTION
2
TABLES
0
TABLE
2
VPORT
5
8
100
AcDbSymbolTable
0
ENDTAB
0
TABLE
2
LTYPE
5
5
100
AcDbSymbolTable
0
LTYPE
5
14
100
AcDbSymbolTableRecord
100
AcDbLinetypeTableRecord
2
BYBLOCK
70
0
0
LTYPE
5
15
100
AcDbSymbolTableRecord
100
AcDbLinetypeTableRecord
2
BYLAYER
70
0
0
ENDTAB
0
TABLE
2
LAYER
5
2
100
AcDbSymbolTable
70
2
0
LAYER
5
50
100
AcDbSymbolTableRecord
100
AcDbLayerTableRecord
2
0
70
0
6
CONTINUOUS
0
ENDTAB
0
TABLE
2
STYLE
5
3
100
AcDbSymbolTable
70
1
0
STYLE
5
11
100
AcDbSymbolTableRecord
100
AcDbTextStyleTableRecord
2
STANDARD
70
0
0
ENDTAB
0
TABLE
2
VIEW
5
6
100
AcDbSymbolTable
70
0
0
ENDTAB
0
TABLE
2
UCS
5
7
100
AcDbSymbolTable
70
0
0
ENDTAB
0
TABLE
2
APPID
5
9
100
AcDbSymbolTable
70
2
0
APPID
5
12
100
AcDbSymbolTableRecord
100
AcDbRegAppTableRecord
2
ACAD
70
0
0
ENDTAB
0
TABLE
2
DIMSTYLE
5
A
100
AcDbSymbolTable
70
1
0
ENDTAB
0
TABLE
2
BLOCK_RECORD
5
1
100
AcDbSymbolTable
70
1
0
BLOCK_RECORD
5
1F
100
AcDbSymbolTableRecord
100
AcDbBlockTableRecord
2
*MODEL_SPACE
0
BLOCK_RECORD
5
1B
100
AcDbSymbolTableRecord
100
AcDbBlockTableRecord
2
*PAPER_SPACE
0
ENDTAB
0
ENDSEC
0
SECTION
2
BLOCKS
0
BLOCK
5
20
100
AcDbEntity
100
AcDbBlockBegin
2
*MODEL_SPACE
0
ENDBLK
5
21
100
AcDbEntity
100
AcDbBlockEnd
0
BLOCK
5
1C
100
AcDbEntity
100
AcDbBlockBegin
2
*PAPER_SPACE
0
ENDBLK
5
1D
100
AcDbEntity
100
AcDbBlockEnd
0
ENDSEC
0
SECTION
2
ENTITIES
0
LWPOLYLINE
5
100
100
AcDbEntity
8
0
100
AcDbPolyline
90
11
70
1
43
0.0
10
40
20
0
10
40
20
100
10
40
20
150
10
40
20
175
10
-40
20
175
10
-40
20
150
10
-40
20
0
10
-15.000000223517418
20
0
10
-15.000000223517418
20
20
10
15
20
20
10
15.000000223517418
20
0
0
LWPOLYLINE
5
101
100
AcDbEntity
8
0
100
AcDbPolyline
90
4
70
1
43
0.0
10
-16.739115719100397
20
50
10
25
20
50
10
25
20
137.00505340765517
10
-16.739115719100397
20
137.00505340765517
0
LWPOLYLINE
5
102
100
AcDbEntity
8
0
100
AcDbPolyline
90
14
70
1
43
0.0
10
-30
20
30
10
30
20
30
10
30
20
32.599999271333218
10
24.499999452382326
20
32.599999271333218
10
16.49999963119626
20
32.599999271333218
10
14.999999664723873
20
32.599999271333218
10
6.4999998547136784
20
32.599999271333218
10
0
20
32.599999271333218
10
-1.4999999664723873
20
32.599999271333218
10
-8.4999998100101948
20
32.599999271333218
10
-16.49999963119626
20
32.599999271333218
10
-21.999999508261681
20
32.599999271333218
10
-29.499999340623617
20
32.599999271333218
10
-29.999999329447746
20
32.599999271333218
0
SPLINE
5
103
100
AcDbEntity
8
0
100
AcDbSpline
70
0
71
2
72
6
73
3
74
0
42
0.000000001
43
0.0000000001
44
0.0000000001
40
0
40
0
40
0
40
1
40
1
40
1
10
-3.6422526877130679
20
133.13056433867018
30
0
10
-3.8059639971460513
20
131.3843163318495
30
0
10
-4.733657840987604
20
131.3843163318495
30
0
0
LINE
5
104
100
AcDbEntity
8
0
100
AcDbLine
10
-4.733657840987604
20
131.3843163318495
30
0
11
-8.1170141737665347
21
131.3843163318495
31
0
0
SPLINE
5
105
100
AcDbEntity
8
0
100
AcDbSpline
70
0
71
2
72
6
73
3
74
0
42
0.000000001
43
0.0000000001
44
0.0000000001
40
0
40
0
40
0
40
1
40
1
40
1
10
-8.1170141737665347
20
131.3843163318495
30
0
10
-9.099279646178644
20
131.3843163318495
30
0
10
-9.099279646178644
20
132.36658061216872
30
0
0
LINE
5
106
100
AcDbEntity
8
0
100
AcDbLine
10
-9.099279646178644
20
132.36658061216872
30
0
11
-9.099279646178644
21
136.18649924467604
31
0
0
LINE
5
107
100
AcDbEntity
8
0
100
AcDbLine
10
-9.099279646178644
20
136.18649924467604
30
0
11
-8.062444929381769
21
136.18649924467604
31
0
0
SPLINE
5
108
100
AcDbEntity
8
0
100
AcDbSpline
70
0
71
2
72
6
73
3
74
0
42
0.000000001
43
0.0000000001
44
0.0000000001
40
0
40
0
40
0
40
1
40
1
40
1
10
-8.062444929381769
20
136.18649924467604
30
0
10
-7.6258826296533755
20
136.13192880819838
30
0
10
-8.0078744929041079
20
135.85907662581008
30
0
0
LINE
5
109
100
AcDbEntity
8
0
100
AcDbLine
10
-8.0078744929041079
20
135.85907662581008
30
0
11
-8.0078744929041079
21
134.3856808013777
31
0
0
SPLINE
5
110
100
AcDbEntity
8
0
100
AcDbSpline
70
0
71
2
72
6
73
3
74
0
42
0.000000001
43
0.0000000001
44
0.0000000001
40
0
40
0
40
0
40
1
40
1
40
1
10
-8.0078744929041079
20
134.3856808013777
30
0
10
-5.9342038672174624
20
135.04052365492385
30
0
10
-4.8973691504205874
20
135.531655199037
30
0
0
LINE
5
111
100
AcDbEntity
8
0
100
AcDbLine
10
-4.8973691504205874
20
135.531655199037
30
0
11
-4.1333854239191226
21
134.49482048224013
31
0
0
SPLINE
5
112
100
AcDbEntity
8
0
100
AcDbSpline
70
0
71
2
72
6
73
3
74
0
42
0.000000001
43
0.0000000001
44
0.0000000001
40
0
40
0
40
0
40
1
40
1
40
1
10
-4.1333854239191226
20
134.49482048224013
30
0
10
-4.0788149874414614
20
134.1128286189894
30
0
10
-4.4608068506921938
20
134.33111036490004
30
0
0
LINE
5
113
100
AcDbEntity
8
0
100
AcDbLine
10
-4.4608068506921938
20
134.33111036490004
30
0
11
-8.0078744929041079
21
133.40341592501204
31
0
0
LINE
5
114
100
AcDbEntity
8
0
100
AcDbLine
10
-8.0078744929041079
20
133.40341592501204
30
0
11
-8.0078744929041079
21
132.80314291189711
31
0
0
SPLINE
5
115
100
AcDbEntity
8
0
100
AcDbSpline
70
0
71
2
72
6
73
3
74
0
42
0.000000001
43
0.0000000001
44
0.0000000001
40
0
40
0
40
0
40
1
40
1
40
1
10
-8.0078744929041079
20
132.80314291189711
30
0
10
-8.0078744929041079
20
132.42115104864638
30
0
10
-7.6804530661310366
20
132.42115104864638
30
0
0
LINE
5
116
100
AcDbEntity
8
0
100
AcDbLine
10
-7.6804530661310366
20
132.42115104864638
30
0
11
-5.2247905771936587
21
132.42115104864638
31
0
0
SPLINE
5
117
100
AcDbEntity
8
0
100
AcDbSpline
70
0
71
2
72
6
73
3
74
0
42
0.000000001
43
0.0000000001
44
0.0000000001
40
0
40
0
40
0
40
1
40
1
40
1
10
-5.2247905771936587
20
132.42115104864638
30
0
10
-4.7882282774652651
20
132.42115104864638
30
0
10
-4.6790885966028384
20
133.29427505205672
30
0
0
LINE
5
118
100
AcDbEntity
8
0
100
AcDbLine
10
-4.6790885966028384
20
133.29427505205672
30
0
11
-3.6422526877130679
21
133.13056433867018
31
0
0
SPLINE
5
119
100
AcDbEntity
8
0
100
AcDbSpline
70
0
71
2
72
6
73
3
74
0
42
0.000000001
43
0.0000000001
44
0.0000000001
40
0
40
0
40
0
40
1
40
1
40
1
10
-10.627247099181574
20
136.18649924467604
30
0
10
-10.19068479945318
20
136.13192880819838
30
0
10
-10.572676662703913
20
135.85907662581008
30
0
0
LINE
5
120
100
AcDbEntity
8
0
100
AcDbLine
10
-10.572676662703913
20
135.85907662581008
30
0
11
-10.572676662703913
21
131.27517605494063
31
0
0
LINE
5
121
100
AcDbEntity
8
0
100
AcDbLine
10
-10.572676662703913
20
131.27517605494063
30
0
11
-11.664081815978449
21
131.27517605494063
31
0
0
LINE
5
122
100
AcDbEntity
8
0
100
AcDbLine
10
-11.664081815978449
20
131.27517605494063
30
0
11
-11.664081815978449
21
132.09372962187331
31
0
0
LINE
5
123
100
AcDbEntity
8
0
100
AcDbLine
10
-11.664081815978449
20
132.09372962187331
30
0
11
-15.211148564120691
21
131.16603518198531
31
0
0
SPLINE
5
124
100
AcDbEntity
8
0
100
AcDbSpline
70
0
71
2
72
6
73
3
74
0
42
0.000000001
43
0.0000000001
44
0.0000000001
40
0
40
0
40
0
40
1
40
1
40
1
10
-15.211148564120691
20
131.16603518198531
30
0
10
-15.265718702575128
20
130.78404331873458
30
0
10
-15.483999852439325
20
131.00232446859877
30
0
0
LINE
5
125
100
AcDbEntity
8
0
100
AcDbLine
10
-15.483999852439325
20
131.00232446859877
30
0
11
-15.920561854144495
21
132.14830005835097
31
0
0
LINE
5
126
100
AcDbEntity
8
0
100
AcDbLine
10
-15.920561854144495
20
132.14830005835097
30
0
11
-11.664081815978449
21
133.02142406176131
31
0
0
LINE
5
127
100
AcDbEntity
8
0
100
AcDbLine
10
-11.664081815978449
20
133.02142406176131
30
0
11
-11.664081815978449
21
133.83997762869399
31
0
0
LINE
5
128
100
AcDbEntity
8
0
100
AcDbLine
10
-11.664081815978449
20
133.83997762869399
30
0
11
-15.320288990041178
21
133.83997762869399
31
0
0
LINE
5
129
100
AcDbEntity
8
0
100
AcDbLine
10
-15.320288990041178
20
133.83997762869399
30
0
11
-15.320288990041178
21
134.87681234549086
31
0
0
LINE
5
130
100
AcDbEntity
8
0
100
AcDbLine
10
-15.320288990041178
20
134.87681234549086
30
0
11
-11.664081815978449
21
134.87681234549086
31
0
0
LINE
5
131
100
AcDbEntity
8
0
100
AcDbLine
10
-11.664081815978449
20
134.87681234549086
30
0
11
-11.664081815978449
21
136.18649924467604
31
0
0
LINE
5
132
100
AcDbEntity
8
0
100
AcDbLine
10
-11.664081815978449
20
136.18649924467604
30
0
11
-10.627247099181574
21
136.18649924467604
31
0
0
LINE
5
133
100
AcDbEntity
8
0
100
AcDbLine
10
-12.700916532775324
20
128.87408459852736
30
0
11
-6.6436171572412661
21
128.87408459852736
31
0
0
LINE
5
134
100
AcDbEntity
8
0
100
AcDbLine
10
-6.6436171572412661
20
128.87408459852736
30
0
11
-6.6436171572412661
21
129.7472086019377
31
0
0
LINE
5
135
100
AcDbEntity
8
0
100
AcDbLine
10
-6.6436171572412661
20
129.7472086019377
30
0
11
-12.700916532775324
21
129.7472086019377
31
0
0
LINE
5
136
100
AcDbEntity
8
0
100
AcDbLine
10
-12.700916532775324
20
129.7472086019377
30
0
11
-12.700916532775324
21
128.87408459852736
31
0
0
SPLINE
5
137
100
AcDbEntity
8
0
100
AcDbSpline
70
0
71
2
72
6
73
3
74
0
42
0.000000001
43
0.0000000001
44
0.0000000001
40
0
40
0
40
0
40
1
40
1
40
1
10
-5.55221200396673
20
124.83588541220229
30
0
10
-5.55221200396673
20
123.9627620048384
30
0
10
-6.4799070399011782
20
123.9627620048384
30
0
0
LINE
5
138
100
AcDbEntity
8
0
100
AcDbLine
10
-6.4799070399011782
20
123.9627620048384
30
0
11
-7.6804530661310366
21
123.9627620048384
31
0
0
LINE
5
139
100
AcDbEntity
8
0
100
AcDbLine
10
-7.6804530661310366
20
123.9627620048384
30
0
11
-7.8441631834711245
21
124.99959672163527
31
0
0
LINE
5
140
100
AcDbEntity
8
0
100
AcDbLine
10
-7.8441631834711245
20
124.99959672163527
30
0
11
-6.8073284666742495
21
124.99959672163527
31
0
0
SPLINE
5
141
100
AcDbEntity
8
0
100
AcDbSpline
70
0
71
2
72
6
73
3
74
0
42
0.000000001
43
0.0000000001
44
0.0000000001
40
0
40
0
40
0
40
1
40
1
40
1
10
-6.8073284666742495
20
124.99959672163527
30
0
10
-6.6436171572412661
20
124.99959672163527
30
0
10
-6.6436171572412661
20
125.16330803106825
30
0
0
LINE
5
142
100
AcDbEntity
8
0
100
AcDbLine
10
-6.6436171572412661
20
125.16330803106825
30
0
11
-6.6436171572412661
21
126.2547119922499
31
0
0
LINE
5
143
100
AcDbEntity
8
0
100
AcDbLine
10
-6.6436171572412661
20
126.2547119922499
30
0
11
-12.700916532775324
21
126.2547119922499
31
0
0
LINE
5
144
100
AcDbEntity
8
0
100
AcDbLine
10
-12.700916532775324
20
126.2547119922499
30
0
11
-12.700916532775324
21
123.85362113188307
31
0
0
LINE
5
145
100
AcDbEntity
8
0
100
AcDbLine
10
-12.700916532775324
20
123.85362113188307
30
0
11
-13.79232168604986
21
123.85362113188307
31
0
0
LINE
5
146
100
AcDbEntity
8
0
100
AcDbLine
10
-13.79232168604986
20
123.85362113188307
30
0
11
-13.79232168604986
21
130.62033260534804
31
0
0
LINE
5
147
100
AcDbEntity
8
0
100
AcDbLine
10
-13.79232168604986
20
130.62033260534804
30
0
11
-5.55221200396673
21
130.62033260534804
31
0
0
LINE
5
148
100
AcDbEntity
8
0
100
AcDbLine
10
-5.55221200396673
20
130.62033260534804
30
0
11
-5.55221200396673
21
124.83588541220229
31
0
0
LINE
5
149
100
AcDbEntity
8
0
100
AcDbLine
10
-12.700916532775324
20
127.12783659170668
30
0
11
-6.6436171572412661
21
127.12783659170668
31
0
0
LINE
5
150
100
AcDbEntity
8
0
100
AcDbLine
10
-6.6436171572412661
20
127.12783659170668
30
0
11
-6.6436171572412661
21
128.00096059511702
31
0
0
LINE
5
151
100
AcDbEntity
8
0
100
AcDbLine
10
-6.6436171572412661
20
128.00096059511702
30
0
11
-12.700916532775324
21
128.00096059511702
31
0
0
LINE
5
152
100
AcDbEntity
8
0
100
AcDbLine
10
-12.700916532775324
20
128.00096059511702
30
0
11
-12.700916532775324
21
127.12783659170668
31
0
0
LINE
5
153
100
AcDbEntity
8
0
100
AcDbLine
10
9.4546079594884702
20
124.18104255865615
30
0
11
8.3632039983068296
21
124.18104255865615
31
0
0
LINE
5
154
100
AcDbEntity
8
0
100
AcDbLine
10
8.3632039983068296
20
124.18104255865615
30
0
11
8.3632039983068296
21
124.72674573133986
31
0
0
LINE
5
155
100
AcDbEntity
8
0
100
AcDbLine
10
8.3632039983068296
20
124.72674573133986
30
0
11
0.013953443268377441
21
124.72674573133986
31
0
0
LINE
5
156
100
AcDbEntity
8
0
100
AcDbLine
10
0.013953443268377441
20
124.72674573133986
30
0
11
0.013953443268377441
21
123.9627620048384
31
0
0
LINE
5
157
100
AcDbEntity
8
0
100
AcDbLine
10
0.013953443268377441
20
123.9627620048384
30
0
11
-1.0774517100061587
21
123.9627620048384
31
0
0
LINE
5
158
100
AcDbEntity
8
0
100
AcDbLine
10
-1.0774517100061587
20
123.9627620048384
30
0
11
-1.0774517100061587
21
132.58486295412581
31
0
0
LINE
5
159
100
AcDbEntity
8
0
100
AcDbLine
10
-1.0774517100061587
20
132.58486295412581
30
0
11
3.3973097760473081
21
132.58486295412581
31
0
0
LINE
5
160
100
AcDbEntity
8
0
100
AcDbLine
10
3.3973097760473081
20
132.58486295412581
30
0
11
3.8338708836828062
21
134.3856819934706
31
0
0
LINE
5
161
100
AcDbEntity
8
0
100
AcDbLine
10
3.8338708836828062
20
134.3856819934706
30
0
11
-1.7322945635523013
21
134.3856819934706
31
0
0
LINE
5
162
100
AcDbEntity
8
0
100
AcDbLine
10
-1.7322945635523013
20
134.3856819934706
30
0
11
-1.7322945635523013
21
135.42251671026747
31
0
0
LINE
5
163
100
AcDbEntity
8
0
100
AcDbLine
10
-1.7322945635523013
20
135.42251671026747
30
0
11
10.109453197220404
21
135.42251671026747
31
0
0
LINE
5
164
100
AcDbEntity
8
0
100
AcDbLine
10
10.109453197220404
20
135.42251671026747
30
0
11
10.109453197220404
21
134.3856819934706
31
0
0
LINE
5
165
100
AcDbEntity
8
0
100
AcDbLine
10
10.109453197220404
20
134.3856819934706
30
0
11
5.0889873463903257
21
134.3856819934706
31
0
0
LINE
5
166
100
AcDbEntity
8
0
100
AcDbLine
10
5.0889873463903257
20
134.3856819934706
30
0
11
4.4887161214147397
21
132.58486295412581
31
0
0
LINE
5
167
100
AcDbEntity
8
0
100
AcDbLine
10
4.4887161214147397
20
132.58486295412581
30
0
11
9.4546079594884702
21
132.58486295412581
31
0
0
LINE
5
168
100
AcDbEntity
8
0
100
AcDbLine
10
9.4546079594884702
20
132.58486295412581
30
0
11
9.4546079594884702
21
124.18104255865615
31
0
0
LINE
5
169
100
AcDbEntity
8
0
100
AcDbLine
10
1.9239127595220396
20
125.76358044813674
30
0
11
1.9239127595220396
21
131.54802823732894
31
0
0
LINE
5
170
100
AcDbEntity
8
0
100
AcDbLine
10
1.9239127595220396
20
131.54802823732894
30
0
11
0.013953443268377441
21
131.54802823732894
31
0
0
LINE
5
171
100
AcDbEntity
8
0
100
AcDbLine
10
0.013953443268377441
20
131.54802823732894
30
0
11
0.013953443268377441
21
125.76358044813674
31
0
0
LINE
5
172
100
AcDbEntity
8
0
100
AcDbLine
10
0.013953443268377441
20
125.76358044813674
30
0
11
1.9239127595220396
21
125.76358044813674
31
0
0
LINE
5
173
100
AcDbEntity
8
0
100
AcDbLine
10
5.3618383366857358
20
125.76358044813674
30
0
11
5.3618383366857358
21
127.12783659170668
31
0
0
LINE
5
174
100
AcDbEntity
8
0
100
AcDbLine
10
5.3618383366857358
20
127.12783659170668
30
0
11
3.0153179127965757
21
127.12783659170668
31
0
0
LINE
5
175
100
AcDbEntity
8
0
100
AcDbLine
10
3.0153179127965757
20
127.12783659170668
30
0
11
3.0153179127965757
21
125.76358044813674
31
0
0
LINE
5
176
100
AcDbEntity
8
0
100
AcDbLine
10
3.0153179127965757
20
125.76358044813674
30
0
11
5.3618383366857358
21
125.76358044813674
31
0
0
LINE
5
177
100
AcDbEntity
8
0
100
AcDbLine
10
5.3618383366857358
20
128.00096119116347
30
0
11
5.3618383366857358
21
129.25607646177809
31
0
0
LINE
5
178
100
AcDbEntity
8
0
100
AcDbLine
10
5.3618383366857358
20
129.25607646177809
30
0
11
3.0153179127965757
21
129.25607646177809
31
0
0
LINE
5
179
100
AcDbEntity
8
0
100
AcDbLine
10
3.0153179127965757
20
129.25607646177809
30
0
11
3.0153179127965757
21
128.00096119116347
31
0
0
LINE
5
180
100
AcDbEntity
8
0
100
AcDbLine
10
3.0153179127965757
20
128.00096119116347
30
0
11
5.3618383366857358
21
128.00096119116347
31
0
0
LINE
5
181
100
AcDbEntity
8
0
100
AcDbLine
10
5.3618383366857358
20
131.54802823732894
30
0
11
3.0153179127965757
21
131.54802823732894
31
0
0
LINE
5
182
100
AcDbEntity
8
0
100
AcDbLine
10
3.0153179127965757
20
131.54802823732894
30
0
11
3.0153179127965757
21
130.12920106123488
31
0
0
LINE
5
183
100
AcDbEntity
8
0
100
AcDbLine
10
3.0153179127965757
20
130.12920106123488
30
0
11
5.3618383366857358
21
130.12920106123488
31
0
0
LINE
5
184
100
AcDbEntity
8
0
100
AcDbLine
10
5.3618383366857358
20
130.12920106123488
30
0
11
5.3618383366857358
21
131.54802823732894
31
0
0
LINE
5
185
100
AcDbEntity
8
0
100
AcDbLine
10
8.3632039983068296
20
131.54802823732894
30
0
11
6.4532446820531675
21
131.54802823732894
31
0
0
LINE
5
186
100
AcDbEntity
8
0
100
AcDbLine
10
6.4532446820531675
20
131.54802823732894
30
0
11
6.4532446820531675
21
125.76358044813674
31
0
0
LINE
5
187
100
AcDbEntity
8
0
100
AcDbLine
10
6.4532446820531675
20
125.76358044813674
30
0
11
8.3632039983068296
21
125.76358044813674
31
0
0
LINE
5
188
100
AcDbEntity
8
0
100
AcDbLine
10
8.3632039983068296
20
125.76358044813674
30
0
11
8.3632039983068296
21
131.54802823732894
31
0
0
ENDSEC
0
SECTION
2
OBJECTS
0
DICTIONARY
5
C
100
AcDbDictionary
3
ACAD_GROUP
350
D
3
ACAD_MLINESTYLE
350
17
0
DICTIONARY
5
D
100
AcDbDictionary
0
DICTIONARY
5
1A
330
C
100
AcDbDictionary
0
DICTIONARY
5
17
100
AcDbDictionary
0
ENDSEC
0
EOF
