0
SECTION
2
HEADER
9
$INSUNITS
70
4
9
$ACADVER
1
AC1014
9
$HANDSEED
5
FFFF
0
ENDSEC
0
SECTION
2
TABLES
0
TABLE
2
VPORT
5
8
100
AcDbSymbolTable
0
ENDTAB
0
TABLE
2
LTYPE
5
5
100
AcDbSymbolTable
0
LTYPE
5
14
100
AcDbSymbolTableRecord
100
AcDbLinetypeTableRecord
2
BYBLOCK
70
0
0
LTYPE
5
15
100
AcDbSymbolTableRecord
100
AcDbLinetypeTableRecord
2
BYLAYER
70
0
0
ENDTAB
0
TABLE
2
LAYER
5
2
100
AcDbSymbolTable
70
2
0
LAYER
5
50
100
AcDbSymbolTableRecord
100
AcDbLayerTableRecord
2
0
70
0
6
CONTINUOUS
0
ENDTAB
0
TABLE
2
STYLE
5
3
100
AcDbSymbolTable
70
1
0
STYLE
5
11
100
AcDbSymbolTableRecord
100
AcDbTextStyleTableRecord
2
STANDARD
70
0
0
ENDTAB
0
TABLE
2
VIEW
5
6
100
AcDbSymbolTable
70
0
0
ENDTAB
0
TABLE
2
UCS
5
7
100
AcDbSymbolTable
70
0
0
ENDTAB
0
TABLE
2
APPID
5
9
100
AcDbSymbolTable
70
2
0
APPID
5
12
100
AcDbSymbolTableRecord
100
AcDbRegAppTableRecord
2
ACAD
70
0
0
ENDTAB
0
TABLE
2
DIMSTYLE
5
A
100
AcDbSymbolTable
70
1
0
ENDTAB
0
TABLE
2
BLOCK_RECORD
5
1
100
AcDbSymbolTable
70
1
0
BLOCK_RECORD
5
1F
100
AcDbSymbolTableRecord
100
AcDbBlockTableRecord
2
*MODEL_SPACE
0
BLOCK_RECORD
5
1B
100
AcDbSymbolTableRecord
100
AcDbBlockTableRecord
2
*PAPER_SPACE
0
ENDTAB
0
ENDSEC
0
SECTION
2
BLOCKS
0
BLOCK
5
20
100
AcDbEntity
100
AcDbBlockBegin
2
*MODEL_SPACE
0
ENDBLK
5
21
100
AcDbEntity
100
AcDbBlockEnd
0
BLOCK
5
1C
100
AcDbEntity
100
AcDbBlockBegin
2
*PAPER_SPACE
0
ENDBLK
5
1D
100
AcDbEntity
100
AcDbBlockEnd
0
ENDSEC
0
SECTION
2
ENTITIES
0
LWPOLYLINE
5
100
100
AcDbEntity
8
0
100
AcDbPolyline
90
11
70
1
43
0.0
10
-110
20
240
10
-380
20
240
10
-382.50000569969416
20
240
10
-382.50000569969416
20
220.00000327825546
10
-380
20
220
10
-110
20
220
10
-107.50000160187483
20
220.00000327825546
10
-107.50000160187483
20
222.50000331550837
10
-107.50000160187483
20
225.00000335276127
10
-107.50000160187483
20
232.50000346451998
10
-107.50000160187483
20
240
0
LWPOLYLINE
5
101
100
AcDbEntity
8
0
100
AcDbPolyline
90
4
70
1
43
0.0
10
-375
20
235
10
-375
20
225
10
-360
20
225
10
-360
20
235
0
LWPOLYLINE
5
102
100
AcDbEntity
8
0
100
AcDbPolyline
90
4
70
1
43
0.0
10
-355
20
235
10
-355
20
225
10
-340
20
225
10
-340
20
235
0
LWPOLYLINE
5
103
100
AcDbEntity
8
0
100
AcDbPolyline
90
4
70
1
43
0.0
10
-335
20
235
10
-335
20
225
10
-320
20
225
10
-320
20
235
0
LWPOLYLINE
5
104
100
AcDbEntity
8
0
100
AcDbPolyline
90
4
70
1
43
0.0
10
-315
20
235
10
-315
20
225
10
-300
20
225
10
-300
20
235
0
LWPOLYLINE
5
105
100
AcDbEntity
8
0
100
AcDbPolyline
90
4
70
1
43
0.0
10
-295
20
235
10
-295
20
225
10
-280
20
225
10
-280
20
235
0
LWPOLYLINE
5
106
100
AcDbEntity
8
0
100
AcDbPolyline
90
4
70
1
43
0.0
10
-275
20
235
10
-275
20
225
10
-260
20
225
10
-260
20
235
0
LWPOLYLINE
5
107
100
AcDbEntity
8
0
100
AcDbPolyline
90
4
70
1
43
0.0
10
-255
20
235
10
-255
20
225
10
-240
20
225
10
-240
20
235
0
LWPOLYLINE
5
108
100
AcDbEntity
8
0
100
AcDbPolyline
90
4
70
1
43
0.0
10
-235
20
235
10
-235
20
225
10
-220
20
225
10
-220
20
235
0
LWPOLYLINE
5
109
100
AcDbEntity
8
0
100
AcDbPolyline
90
4
70
1
43
0.0
10
-215
20
235
10
-215
20
225
10
-200
20
225
10
-200
20
235
0
LWPOLYLINE
5
110
100
AcDbEntity
8
0
100
AcDbPolyline
90
4
70
1
43
0.0
10
-195
20
235
10
-195
20
225
10
-180
20
225
10
-180
20
235
0
LWPOLYLINE
5
111
100
AcDbEntity
8
0
100
AcDbPolyline
90
4
70
1
43
0.0
10
-175
20
235
10
-175
20
225
10
-160
20
225
10
-160
20
235
0
LWPOLYLINE
5
112
100
AcDbEntity
8
0
100
AcDbPolyline
90
4
70
1
43
0.0
10
-155
20
235
10
-155
20
225
10
-140
20
225
10
-140
20
235
0
LINE
5
113
100
AcDbEntity
8
0
100
AcDbLine
10
-135
20
235
30
0
11
-135
21
225
31
0
0
LINE
5
114
100
AcDbEntity
8
0
100
AcDbLine
10
-135
20
225
30
0
11
-120
21
225
31
0
0
LINE
5
115
100
AcDbEntity
8
0
100
AcDbLine
10
-120
20
225
30
0
11
-120
21
235
31
0
0
LINE
5
116
100
AcDbEntity
8
0
100
AcDbLine
10
-120
20
235
30
0
11
-135
21
235
31
0
0
LWPOLYLINE
5
117
100
AcDbEntity
8
0
100
AcDbPolyline
90
8
70
1
43
0.0
10
-380
20
250
10
-110
20
250
10
-107.50000160187483
20
250
10
-107.50000160187483
20
270.00000402331352
10
-110
20
270
10
-380
20
270
10
-382.50000569969416
20
270
10
-382.50000569969416
20
250
0
LWPOLYLINE
5
118
100
AcDbEntity
8
0
100
AcDbPolyline
90
4
70
1
43
0.0
10
-375
20
265
10
-375
20
255
10
-360
20
255
10
-360
20
265
0
LWPOLYLINE
5
119
100
AcDbEntity
8
0
100
AcDbPolyline
90
4
70
1
43
0.0
10
-220
20
255
10
-220
20
265
10
-235
20
265
10
-235
20
255
0
LWPOLYLINE
5
120
100
AcDbEntity
8
0
100
AcDbPolyline
90
4
70
1
43
0.0
10
-355
20
265
10
-355
20
255
10
-340
20
255
10
-340
20
265
0
LWPOLYLINE
5
121
100
AcDbEntity
8
0
100
AcDbPolyline
90
4
70
1
43
0.0
10
-335
20
265
10
-335
20
255
10
-320
20
255
10
-320
20
265
0
LWPOLYLINE
5
122
100
AcDbEntity
8
0
100
AcDbPolyline
90
4
70
1
43
0.0
10
-315
20
265
10
-315
20
255
10
-300
20
255
10
-300
20
265
0
LWPOLYLINE
5
123
100
AcDbEntity
8
0
100
AcDbPolyline
90
4
70
1
43
0.0
10
-295
20
265
10
-295
20
255
10
-280
20
255
10
-280
20
265
0
LWPOLYLINE
5
124
100
AcDbEntity
8
0
100
AcDbPolyline
90
4
70
1
43
0.0
10
-275
20
265
10
-275
20
255
10
-260
20
255
10
-260
20
265
0
LWPOLYLINE
5
125
100
AcDbEntity
8
0
100
AcDbPolyline
90
4
70
1
43
0.0
10
-255
20
265
10
-255
20
255
10
-240
20
255
10
-240
20
265
0
LWPOLYLINE
5
126
100
AcDbEntity
8
0
100
AcDbPolyline
90
4
70
1
43
0.0
10
-215
20
265
10
-215
20
255
10
-200
20
255
10
-200
20
265
0
LWPOLYLINE
5
127
100
AcDbEntity
8
0
100
AcDbPolyline
90
4
70
1
43
0.0
10
-120
20
255
10
-120
20
265
10
-135
20
265
10
-135
20
255
0
LWPOLYLINE
5
128
100
AcDbEntity
8
0
100
AcDbPolyline
90
4
70
1
43
0.0
10
-195
20
265
10
-195
20
255
10
-180
20
255
10
-180
20
265
0
LWPOLYLINE
5
129
100
AcDbEntity
8
0
100
AcDbPolyline
90
4
70
1
43
0.0
10
-175
20
265
10
-175
20
255
10
-160
20
255
10
-160
20
265
0
LWPOLYLINE
5
130
100
AcDbEntity
8
0
100
AcDbPolyline
90
4
70
1
43
0.0
10
-155
20
265
10
-155
20
255
10
-140
20
255
10
-140
20
265
0
ENDSEC
0
SECTION
2
OBJECTS
0
DICTIONARY
5
C
100
AcDbDictionary
3
ACAD_GROUP
350
D
3
ACAD_MLINESTYLE
350
17
0
DICTIONARY
5
D
100
AcDbDictionary
0
DICTIONARY
5
1A
330
C
100
AcDbDictionary
0
DICTIONARY
5
17
100
AcDbDictionary
0
ENDSEC
0
EOF
